<?xml version="1.0" standalone="no"?>
<!DOCTYPE svg PUBLIC "-//W3C//DTD SVG 20010904//EN"
 "http://www.w3.org/TR/2001/REC-SVG-20010904/DTD/svg10.dtd">
<svg version="1.0" xmlns="http://www.w3.org/2000/svg"
 width="700.000000pt" height="700.000000pt" viewBox="0 0 700.000000 700.000000"
 preserveAspectRatio="xMidYMid meet">
<metadata>
Created by potrace 1.14, written by Peter Selinger 2001-2017
</metadata>
<g transform="translate(0.000000,700.000000) scale(0.100000,-0.100000)"
fill="#000000" stroke="none">
<path d="M973 6111 c7 -8 220 -223 475 -478 l463 -463 2051 0 2050 0 -478 478
-479 477 -2047 0 c-1766 0 -2045 -2 -2035 -14z"/>
<path d="M879 6038 c-1 -2 -2 -924 -3 -2049 l-1 -2046 477 -478 478 -477 0
2051 0 2051 -475 475 c-261 261 -476 474 -476 473z"/>
<path d="M1946 5050 c-2 -3 -2 -943 -2 -2090 l1 -2085 2083 0 c1146 0 2087 2
2091 5 11 8 7 4170 -4 4171 -31 5 -4167 4 -4169 -1z"/>
</g>
</svg>
